<?xml version="1.0" standalone="no"?><!DOCTYPE svg PUBLIC
        "-//W3C//DTD SVG 1.1//EN"
        "http://www.w3.org/Graphics/SVG/1.1/DTD/svg11.dtd">
<svg t="1592482013628" class="icon" viewBox="0 0 1024 1024" version="1.1"
     xmlns="http://www.w3.org/2000/svg" p-id="1375"
     width="200" height="200">
    <defs>
        <style type="text/css"></style>
    </defs>
    <path d="M102.4 921.6h870.4c9.42613333 0 17.06666667 7.64053333 17.06666667 17.06666667v34.13333333c0 9.42613333-7.64053333 17.06666667-17.06666667 17.06666667H51.2c-9.42613333 0-17.06666667-7.64053333-17.06666667-17.06666667V51.2c0-9.42613333 7.64053333-17.06666667 17.06666667-17.06666667h34.13333333c9.42613333 0 17.06666667 7.64053333 17.06666667 17.06666667v870.4z m102.4-346.66666667h51.2c9.42613333 0 17.06666667 7.64053333 17.06666667 17.06666667v234.66666667c0 9.42613333-7.64053333 17.06666667-17.06666667 17.06666666h-51.2c-9.42613333 0-17.06666667-7.64053333-17.06666667-17.06666666V592c0-9.42613333 7.64053333-17.06666667 17.06666667-17.06666667z m384-119.46666666h51.2c9.42613333 0 17.06666667 7.64053333 17.06666667 17.06666666v354.13333334c0 9.42613333-7.64053333 17.06666667-17.06666667 17.06666666h-51.2c-9.42613333 0-17.06666667-7.64053333-17.06666667-17.06666666V472.53333333c0-9.42613333 7.64053333-17.06666667 17.06666667-17.06666666zM396.8 230.4h51.2c9.42613333 0 17.06666667 7.64053333 17.06666667 17.06666667v579.2c0 9.42613333-7.64053333 17.06666667-17.06666667 17.06666666h-51.2c-9.42613333 0-17.06666667-7.64053333-17.06666667-17.06666666V247.46666667c0-9.42613333 7.64053333-17.06666667 17.06666667-17.06666667z m384-105.6h51.2c9.42613333 0 17.06666667 7.64053333 17.06666667 17.06666667v684.8c0 9.42613333-7.64053333 17.06666667-17.06666667 17.06666666h-51.2c-9.42613333 0-17.06666667-7.64053333-17.06666667-17.06666666V141.86666667c0-9.42613333 7.64053333-17.06666667 17.06666667-17.06666667z"
          fill="#222222" p-id="1376"></path>
</svg>