<?xml version="1.0" standalone="no"?><!DOCTYPE svg PUBLIC
        "-//W3C//DTD SVG 1.1//EN"
        "http://www.w3.org/Graphics/SVG/1.1/DTD/svg11.dtd">
<svg t="1592482003024" class="icon" viewBox="0 0 1024 1024" version="1.1"
     xmlns="http://www.w3.org/2000/svg" p-id="1099"
     width="200" height="200">
    <defs>
        <style type="text/css"></style>
    </defs>
    <path d="M956.6738963 14.8973037h-361.17617778c-13.98101333 0-27.1853037 5.43706075-37.02379457 15.27555161L30.17285531 558.47392395c-20.45370469 20.45370469-20.45370469 53.59388445 0 74.04758914l361.17617778 361.17617777c9.83849086 9.83849086 23.04278124 15.27555161 37.02379456 15.27555161s27.1853037-5.43706075 37.02379457-15.27555161L993.69769086 465.39662222c9.83849086-9.83849086 15.40500543-23.04278124 15.40500544-37.02379457v-361.17617778c0-28.73874963-23.56059653-52.29934617-52.4288-52.29934617z m-13.07483655 408.16791705L428.50228148 938.16199902 85.83800098 595.49771852l515.09677827-515.09677827h342.6642805v342.6642805z"
          fill="#222222" p-id="1100"></path>
    <path d="M639.51201975 384.35852642c25.50240395 25.50240395 59.28985283 39.48341728 95.27801678 39.48341728 35.98816395 0 69.90506667-13.98101333 95.2780168-39.48341728 25.50240395-25.50240395 39.48341728-59.28985283 39.48341728-95.27801679 0-35.98816395-13.98101333-69.90506667-39.48341728-95.2780168-25.50240395-25.50240395-59.28985283-39.48341728-95.2780168-39.48341728-35.98816395 0-69.90506667 13.98101333-95.27801678 39.48341728-25.37295013 25.37295013-39.48341728 59.28985283-39.48341728 95.2780168 0 35.98816395 14.11046717 69.90506667 39.48341728 95.27801679zM685.85648987 240.14696297c13.07483653-13.07483653 30.5511032-20.32425086 48.93354666-20.32425087 18.51189728 0 35.85871013 7.24941431 49.0630005 20.32425087 13.07483653 13.07483653 20.32425086 30.5511032 20.32425087 49.0630005 0 18.51189728-7.24941431 35.85871013-20.32425087 49.06300048-13.07483653 13.07483653-30.42164939 20.32425086-48.93354666 20.32425087-18.51189728 0-35.85871013-7.24941431-48.93354667-20.32425087-13.07483653-13.07483653-20.32425086-30.5511032-20.32425087-48.93354667 0-18.77080494 7.1199605-36.11761778 20.19479704-49.19245431z"
          fill="#222222" p-id="1101"></path>
</svg>