<svg xmlns="http://www.w3.org/2000/svg" viewBox="0 0 1024 1024" width="1024"
     height="1024">
    <style>
        tspan { white-space:pre }
        .shp0 { fill: #000000 }
    </style>
    <path id="Layer" class="shp0"
          d="M727.27 978.39C734.18 978.39 740.94 976.34 746.68 972.5C752.43 968.66 756.9 963.21 759.55 956.82C762.19 950.44 762.87 943.41 761.52 936.64C760.17 929.86 756.83 923.64 751.94 918.76L346.07 512.93L751.94 107.05C758.48 100.5 762.16 91.62 762.16 82.36C762.16 73.1 758.48 64.22 751.93 57.68C745.39 51.13 736.51 47.45 727.25 47.45C717.99 47.45 709.11 51.13 702.56 57.68L272.01 488.22C268.77 491.46 266.21 495.3 264.46 499.54C262.7 503.77 261.8 508.3 261.8 512.88C261.8 517.47 262.7 522 264.46 526.23C266.21 530.47 268.77 534.31 272.01 537.55L702.6 968.15C704.22 969.76 705.99 971.22 707.89 972.49C709.79 973.77 711.81 974.85 713.92 975.73C716.03 976.6 718.22 977.27 720.46 977.71C722.71 978.16 724.99 978.39 727.27 978.39Z"/>
</svg>