<?xml version="1.0" standalone="no"?><!DOCTYPE svg PUBLIC
        "-//W3C//DTD SVG 1.1//EN"
        "http://www.w3.org/Graphics/SVG/1.1/DTD/svg11.dtd">
<svg t="1592482009993" class="icon" viewBox="0 0 1024 1024" version="1.1"
     xmlns="http://www.w3.org/2000/svg" p-id="1235"
     width="200" height="200">
    <defs>
        <style type="text/css"></style>
    </defs>
    <path d="M886.89777778 647.50933333c-49.152-131.072-184.88888889-273.86311111-213.67466667-301.51111111l-1.024-1.024c-3.41333333-3.072-7.05422222-6.25777778-11.15022222-9.55733333-3.072-3.29955555-5.91644445-6.144-8.53333334-8.87466667 8.76088889 7.28177778 19.91111111 11.83288889 32.3128889 11.83288889 19.79733333 0 36.75022222-11.49155555 45.16977777-27.98933333 29.46844445 5.91644445 106.72355555 22.75555555 116.84977778 65.08088889 2.38933333 10.01244445 11.37777778 16.72533333 21.27644445 16.72533333 1.70666667 0 3.41333333-0.22755555 5.12-0.56888889 11.71911111-2.84444445 19.00088889-14.56355555 16.15644444-26.39644444-12.74311111-52.90666667-71.22488889-77.36888889-115.712-89.54311112 21.04888889-19.68355555 39.936-44.71466667 42.09777778-62.12266666 1.47911111-11.60533333-6.59911111-21.61777778-18.20444445-23.552-11.60533333-1.93422222-22.75555555 6.37155555-25.14488889 17.86311111-2.38933333 11.37777778-29.80977778 39.36711111-45.85244444 50.85866667-9.216-13.19822222-24.46222222-21.95911111-41.75644444-21.95911112-15.24622222 0-28.78577778 6.82666667-38.11555556 17.52177778 5.34755555-7.96444445 11.03644445-13.42577778 13.88088889-15.92888888 2.048-1.82044445 5.91644445-4.77866667 10.92266667-8.7608889 55.52355555-43.69066667 108.43022222-80.32711111 119.35288888-114.1191111 3.072-9.32977778 5.12-15.36 6.59911112-19.34222223 2.16177778-6.144 8.53333333-24.12088889-7.85066667-32.42666667-3.29955555-3.52711111-9.216-7.73688889-18.65955556-7.73688888-7.39555555 0-14.79111111 2.50311111-24.23466667 5.68888888-15.70133333 5.34755555-37.54666667 11.37777778-51.6551111 5.46133334-11.83288889-5.00622222-23.21066667-13.08444445-35.15733334-21.61777778-22.30044445-15.81511111-47.55911111-33.90577778-82.944-36.40888889-28.10311111-2.048-50.97244445 7.50933333-72.81777778 16.72533333-19.456 8.192-37.77422222 15.92888889-62.464 15.9288889h-0.11377778c-24.00711111-0.45511111-50.176-3.98222222-73.27288888-7.05422223-21.73155555-2.95822222-40.50488889-5.46133333-55.63733334-5.46133333-6.37155555 0-11.71911111 0.45511111-15.24622222 1.25155556-2.27555555-1.82044445-5.80266667-6.144-10.35377778-12.8568889-3.52711111-5.23377778-8.98844445-13.19822222-20.13866666-13.19822222-6.25777778 0-12.40177778 3.072-16.15644445 8.07822222-6.59911111 8.76088889-6.25777778 10.24 4.77866667 49.152l1.59288889 5.57511112c0.34133333 1.25155555 0.68266667 3.52711111 1.25155555 6.59911111 3.86844445 21.84533333 13.08444445 64.62577778 37.54666667 91.24977777 3.41333333 4.32355555 7.168 8.98844445 11.264 13.99466667 18.77333333 23.09688889 42.89422222 52.90666667 54.95466667 84.76444445-5.91644445 1.25155555-11.83288889 2.16177778-17.74933334 3.52711111-10.80888889 2.38933333-17.63555555 13.19822222-15.24622222 24.00711111 2.38933333 10.80888889 13.19822222 17.52177778 24.00711111 15.13244444 5.46133333-1.25155555 10.92266667-2.16177778 16.384-3.18577778-0.34133333 10.46755555-2.61688889 21.04888889-7.50933333 31.40266667-3.072 4.43733333-6.144 7.96444445-9.10222222 10.46755556-101.60355555 86.016-173.96622222 193.42222222-214.81244445 302.53511111-40.50488889 107.97511111-43.34933333 152.23466667-42.78044444 188.18844444 0.79644445 49.26577778 2.84444445 179.99644445 235.86133333 183.40977778 207.872 3.072 234.26844445 2.27555555 363.52 0.79644444 232.67555555-2.50311111 234.60977778-134.59911111 235.40622222-184.32 0.11377778-36.18133333-2.73066667-80.44088889-43.23555555-188.30222222zM338.03377778 162.01955555c-3.86844445-4.77866667-7.50933333-9.32977778-11.83288889-14.67733333-16.27022222-17.74933333-24.34844445-57.344-27.87555556-76.57244444 1.59288889-0.11377778 3.29955555-0.34133333 4.89244445-0.68266667 1.47911111-0.34133333 4.20977778-0.68266667 9.10222222-0.68266666 12.51555555 0 30.83377778 2.50311111 50.28977778 5.12 24.12088889 3.18577778 51.54133333 6.94044445 77.824 7.39555555h2.84444444c30.83377778 0 54.95466667-10.12622222 76.23111111-19.11466667 19.22844445-8.07822222 35.38488889-15.01866667 54.272-13.65333333 24.12088889 1.70666667 42.78044445 15.01866667 62.57777778 29.01333333 13.19822222 9.44355555 26.85155555 19.11466667 42.78044444 25.82755556 22.98311111 9.78488889 53.47555555 4.43733333 73.728-2.16177778-0.11377778 0.34133333-0.22755555 0.79644445-0.34133333 1.13777778-5.80266667 17.86311111-41.41511111 44.14577778-105.92711111 95.00444444-5.57511111 4.43733333-9.78488889 7.73688889-12.06044444 9.67111112-6.71288889 5.68888889-23.09688889 18.20444445-32.65422222 42.4391111-58.82311111-9.216-127.65866667-8.192-199.90755556 2.95822223-13.76711111-40.96-42.89422222-65.08088889-63.94311111-91.02222223z m304.46933333 153.82755556c-3.52711111-4.32355555-5.68888889-8.30577778-6.71288889-13.99466666 0.11377778 0 0.22755555 0.11377778 0.45511111 0.11377777 1.36533333 5.00622222 3.41333333 9.67111111 6.25777778 13.88088889z m247.01155556 519.168c-0.79644445 49.83466667-2.16177778 139.03644445-195.69777778 141.19822222-113.55022222 1.25155555-128 2.73066667-362.496-0.79644444-194.10488889-2.84444445-195.584-91.02222222-196.26666667-140.40177778-0.45511111-32.19911111 2.16177778-72.13511111 40.27733333-173.51111111C213.78844445 558.87644445 282.16888889 457.04533333 378.53866667 375.46666667c5.91644445-5.00622222 11.71911111-11.60533333 17.18044444-19.68355556 0.45511111-0.68266667 0.91022222-1.47911111 1.36533334-2.27555556 9.78488889-19.56977778 13.312-38.912 12.51555555-57.57155555 67.01511111-10.12622222 131.29955555-11.15022222 185.344-2.84444445 0 1.59288889-0.22755555 2.95822222-0.11377778 4.55111112 1.93422222 30.03733333 14.44977778 42.43911111 27.648 55.52355555 3.072 3.072 6.37155555 6.37155555 10.01244445 10.24 0.68266667 0.68266667 1.36533333 1.36533333 2.048 1.93422223 4.096 3.41333333 7.85066667 6.59911111 10.80888888 9.32977777 15.92888889 15.13244445 156.78577778 160.42666667 204.11733334 286.83377778 37.888 101.48977778 40.50488889 141.312 40.04977778 173.51111111zM522.12622222 643.18577778v-111.72977778c25.37244445 5.23377778 48.24177778 17.18044445 66.67377778 37.43288889l25.48622222-31.06133334c-23.32444445-24.23466667-53.81688889-40.50488889-92.16-45.5111111v-47.6728889h-22.18666667v0.45511112h-19.456v45.39733333c-61.21244445 4.55111111-103.76533333 41.87022222-103.76533333 94.32177778 0 62.69155555 51.76888889 80.09955555 103.76533333 94.32177777v123.904c-40.27733333-4.55111111-69.632-25.03111111-88.97422222-47.90044444l-25.48622222 32.65422222c25.48622222 29.01333333 63.03288889 50.51733333 114.46044444 53.58933334v45.73866666h33.56444445v-0.34133333h8.07822222v-46.64888889c72.59022222-8.41955555 99.89688889-54.04444445 99.89688889-98.304 0-63.37422222-49.83466667-83.968-99.89688889-98.64533333z m-41.64266667-10.46755556c-34.70222222-10.24-59.96088889-22.41422222-59.96088888-50.51733333 0-29.58222222 23.77955555-50.97244445 59.96088888-53.58933334v104.10666667zM522.12622222 802.13333333v-112.18488888c31.85777778 10.35377778 55.97866667 24.46222222 55.97866667 55.06844444 0.11377778 22.86933333-13.99466667 49.72088889-55.97866667 57.11644444z"
          fill="#222222" p-id="1236"></path>
</svg>